<?xml version="1.0" standalone="no"?>
<!DOCTYPE svg PUBLIC "-//W3C//DTD SVG 20010904//EN"
 "http://www.w3.org/TR/2001/REC-SVG-20010904/DTD/svg10.dtd">
<svg version="1.0" xmlns="http://www.w3.org/2000/svg"
 width="225.000000pt" height="225.000000pt" viewBox="0 0 225.000000 225.000000"
 preserveAspectRatio="xMidYMid meet">
<metadata>
Created by potrace 1.16, written by Peter Selinger 2001-2019
</metadata>
<g transform="translate(0.000000,225.000000) scale(0.100000,-0.100000)"
fill="#000000" stroke="none">
<path d="M673 1946 c-248 -88 -454 -163 -457 -166 -2 -3 15 -176 39 -385 24
-209 56 -479 70 -599 14 -121 28 -223 32 -227 15 -13 758 -422 768 -422 10 0
753 408 768 422 6 6 35 236 102 826 9 77 23 194 31 259 8 65 11 122 7 127 -7
6 -619 227 -843 304 l-65 22 -452 -161z m739 -694 c149 -334 273 -615 275
-625 5 -16 -3 -17 -102 -15 l-107 3 -55 138 -55 137 -245 -2 -245 -3 -55 -137
-55 -138 -109 0 -108 0 30 68 c17 37 140 312 274 612 134 300 249 558 256 573
11 23 14 25 22 12 4 -9 130 -289 279 -623z"/>
<path d="M1045 1278 c-44 -105 -81 -195 -83 -200 -2 -4 71 -8 163 -8 130 0
166 3 162 13 -58 139 -160 383 -161 384 -1 1 -38 -84 -81 -189z"/>
</g>
</svg>
