<?xml version="1.0" standalone="no"?>
<!DOCTYPE svg PUBLIC "-//W3C//DTD SVG 20010904//EN"
 "http://www.w3.org/TR/2001/REC-SVG-20010904/DTD/svg10.dtd">
<svg version="1.0" xmlns="http://www.w3.org/2000/svg"
 width="512.000000pt" height="512.000000pt" viewBox="0 0 512.000000 512.000000"
 preserveAspectRatio="xMidYMid meet">
<metadata>
Created by potrace 1.16, written by Peter Selinger 2001-2019
</metadata>
<g transform="translate(0.000000,512.000000) scale(0.100000,-0.100000)"
fill="#000000" stroke="none">
<path d="M190 5091 c0 -22 -6 -30 -25 -35 -32 -8 -93 -69 -101 -101 -5 -19
-13 -25 -35 -25 -16 0 -29 -4 -29 -10 0 -5 13 -10 29 -10 23 0 30 -5 36 -27 4
-19 361 -383 1126 -1148 l1119 -1120 0 -55 0 -55 -1119 -1120 c-765 -765
-1122 -1129 -1126 -1147 -6 -23 -13 -28 -36 -28 -16 0 -29 -4 -29 -10 0 -5 13
-10 29 -10 22 0 30 -6 35 -25 8 -32 69 -93 101 -101 19 -5 25 -13 25 -35 0
-16 5 -29 10 -29 6 0 10 13 10 29 0 23 5 30 28 36 18 4 382 361 1147 1126
l1120 1119 55 0 55 0 1120 -1119 c765 -765 1129 -1122 1148 -1126 22 -6 27
-13 27 -36 0 -16 5 -29 10 -29 6 0 10 13 10 29 0 22 6 30 25 35 32 8 93 69
101 101 5 19 13 25 35 25 16 0 29 5 29 10 0 6 -13 10 -29 10 -23 0 -30 5 -36
27 -4 19 -361 383 -1126 1148 l-1119 1120 0 55 0 55 1119 1120 c765 765 1122
1129 1126 1148 6 22 13 27 36 27 16 0 29 5 29 10 0 6 -13 10 -29 10 -22 0 -30
6 -35 25 -8 32 -69 93 -101 101 -19 5 -25 13 -25 35 0 16 -4 29 -10 29 -5 0
-10 -13 -10 -29 0 -23 -5 -30 -27 -36 -19 -4 -383 -361 -1148 -1126 l-1120
-1119 -55 0 -55 0 -1120 1119 c-765 765 -1129 1122 -1147 1126 -23 6 -28 13
-28 36 0 16 -4 29 -10 29 -5 0 -10 -13 -10 -29z"/>
</g>
</svg>
