<?xml version="1.0" standalone="no"?>
<!DOCTYPE svg PUBLIC "-//W3C//DTD SVG 20010904//EN"
 "http://www.w3.org/TR/2001/REC-SVG-20010904/DTD/svg10.dtd">
<svg version="1.0" xmlns="http://www.w3.org/2000/svg"
 width="512.000000pt" height="512.000000pt" viewBox="0 0 512.000000 512.000000"
 preserveAspectRatio="xMidYMid meet">
<metadata>
Created by potrace 1.16, written by Peter Selinger 2001-2019
</metadata>
<g transform="translate(0.000000,512.000000) scale(0.100000,-0.100000)"
fill="#000000" stroke="none">
<path d="M139 4282 c-24 -16 -53 -45 -64 -65 -15 -29 -26 -37 -47 -37 -21 0
-28 -5 -28 -20 0 -15 7 -20 28 -20 21 0 32 -8 47 -37 11 -20 40 -49 64 -65
l45 -28 2376 0 2376 0 45 28 c24 16 53 45 64 65 15 29 26 37 47 37 21 0 28 5
28 20 0 15 -7 20 -28 20 -21 0 -32 8 -47 37 -11 20 -40 49 -64 65 l-45 28
-2376 0 -2376 0 -45 -28z"/>
<path d="M139 2682 c-24 -16 -53 -45 -64 -65 -15 -29 -26 -37 -47 -37 -21 0
-28 -5 -28 -20 0 -15 7 -20 28 -20 21 0 32 -8 47 -37 11 -20 40 -49 64 -65
l45 -28 2376 0 2376 0 45 28 c24 16 53 45 64 65 15 29 26 37 47 37 21 0 28 5
28 20 0 15 -7 20 -28 20 -21 0 -32 8 -47 37 -11 20 -40 49 -64 65 l-45 28
-2376 0 -2376 0 -45 -28z"/>
<path d="M139 1082 c-24 -16 -53 -45 -64 -65 -15 -29 -26 -37 -47 -37 -21 0
-28 -5 -28 -20 0 -15 7 -20 28 -20 21 0 32 -8 47 -37 11 -20 40 -49 64 -65
l45 -28 2376 0 2376 0 45 28 c24 16 53 45 64 65 15 29 26 37 47 37 21 0 28 5
28 20 0 15 -7 20 -28 20 -21 0 -32 8 -47 37 -11 20 -40 49 -64 65 l-45 28
-2376 0 -2376 0 -45 -28z"/>
</g>
</svg>
